<svg version="1.2" xmlns="http://www.w3.org/2000/svg" viewBox="0 0 400 400" width="400" height="400">
	<title>LOGO</title>
	<style>
		.s0 { fill: none;stroke: #1681ff;stroke-linecap: round;stroke-linejoin: round;stroke-width: 21 } 
		.s1 { fill: none;stroke: #ffd234;stroke-linecap: round;stroke-linejoin: round;stroke-width: 21 } 
	</style>
	<g id="Carpeta 2 copy">
		<g id="Carpeta 1">
			<path id="Forma 3" class="s0" d="m222.7 260.3c0 0 89.3 58.8 97.9 58.8 8.6 0 37.8-30.9 35.2-37.8-2.5-6.8-107.2-51.2-112.5-48.5zm-125.6-236.4"/>
			<path id="Forma 2" class="s0" d="m113 246.7c-0.2-17.3 63.6-95.9 85.6-96.7 22-0.8 58.4 27.6 62.3 42 4 14.4-53.2 94.6-77.9 97.1-25.4 1.5-69.8-25.1-70-42.4z"/>
		</g>
		<path id="Forma 1" class="s1" d="m329.5 190.2c-16.5-78.1-67.6-110.1-133.5-142.2-78.9 27.7-143.8 112.5-148.5 130-4.7 17.4-11.3 141.1 13.4 160.4 24.7 19.3 93.5 13.9 163.7 11.3"/>
	</g>
</svg>