<svg version="1.2" xmlns="http://www.w3.org/2000/svg" viewBox="0 0 1080 1080" width="1080" height="1080">
	<title>twoLogo</title>
	<style>
		.s0 { fill: none;stroke: #1681ff;stroke-linecap: round;stroke-miterlimit:100;stroke-width: 60 } 
		.s1 { fill: none;stroke: #ffd234;stroke-linecap: round;stroke-miterlimit:100;stroke-width: 60 } 
	</style>
	<g id="Carpeta 1 copy">
		<g id="llave">
			<path id="Forma 1" class="s0" d="m308 617.8c-25.5 92.4 146 188 218 144 81-49.5 138-112.5 156-212 16.7-92.3-168-190-226-132-48.1 48.1 84 72 84 108 0 53-29.6 61.4-62 98-45.6 51.6-154-64-170-6z"/>
			<path id="Forma 2" class="s0" d="m606 708c80 41.8 142 93.6 226 143.8 47.5 28.4 148-58.2 124-88-49.2-61.2-194-102-290-139.8"/>
		</g>
		<path id="cassa" class="s1" d="m894 512c-44-206.2-216-330.2-368-386.2-100 30-292 152-398 342-24 190-32 332 26 444.2 20.3 39.3 262 53.8 448 33.8"/>
	</g>
</svg>