<svg version="1.2" xmlns="http://www.w3.org/2000/svg" viewBox="0 0 400 400" width="400" height="400">
	<title>SELLO</title>
	<style>
		.s0 { fill: #ffffff;stroke: #000000;stroke-linecap: round;stroke-width: 8 } 
		.s1 { fill: #ffd234;stroke: #000000;stroke-linecap: round;stroke-width: 8 } 
		.s2 { fill: #000000;stroke: #000000 } 
		.s3 { fill: #0075ff;stroke: #0075ff;stroke-width: 2 } 
	</style>
	<path id="Forma 4" class="s0" d="m199.5 388c-104.2 0-188.5-84.3-188.5-188.5 0-104.2 84.3-188.5 188.5-188.5 104.2 0 188.5 84.3 188.5 188.5 0 104.2-84.3 188.5-188.5 188.5z"/>
	<path id="Forma 4 copy" class="s1" d="m200 304c-57.5 0-104-46.5-104-104 0-57.5 46.5-104 104-104 57.5 0 104 46.5 104 104 0 57.5-46.5 104-104 104z"/>
	<path id="RESULTADOS ★ CALIDAD ★ RAPIDEZ ★" class="s2" aria-label="RESULTADOS ★ CALIDAD ★ RAPIDEZ ★ SEGURIDAD  ★"  d="m92.3 102.9q0.8-0.5 2.1-0.5 1.3 0 3.1 0.5l6.1 1.5-2 2.3-5.6-1.5q-2.3-0.6-3.4-0.3-1.1 0.3-2.2 1.5l-2 2.3 6.6 5.7-1.8 2-15.5-13.3 4.1-4.7q2.3-2.7 4.5-3 2.3-0.4 4.5 1.6 1.5 1.2 1.8 2.7 0.4 1.5-0.3 3.2zm-8.8-3l-2.2 2.6 5.4 4.7 2.3-2.6q1.3-1.5 1.3-2.9 0-1.4-1.4-2.5-1.4-1.2-2.7-1-1.4 0.1-2.7 1.7zm8.3 3.5q0.8-0.5 2.1-0.4 1.3 0 3.1 0.5l6.1 1.5-2 2.2-5.6-1.4q-2.2-0.6-3.4-0.3-1.1 0.3-2.2 1.5l-1.9 2.3 6.5 5.6-1.8 2.1-15.5-13.4 4.1-4.7q2.3-2.6 4.6-3 2.2-0.3 4.4 1.6 1.5 1.3 1.8 2.8 0.4 1.5-0.3 3.1zm-8.8-3l-2.2 2.6 5.4 4.8 2.3-2.6q1.3-1.6 1.3-2.9 0-1.4-1.4-2.6-1.3-1.1-2.7-1-1.3 0.2-2.7 1.7zm24 1l-13.4-15.5 9.8-8.4 1.5 1.7-7.7 6.7 4 4.5 7.3-6.3 1.6 1.8-7.4 6.3 4.8 5.6 7.9-6.8 1.5 1.8zm-0.5 0.5l-13.4-15.5 9.8-8.4 1.5 1.7-7.7 6.7 4 4.5 7.3-6.3 1.6 1.7-7.4 6.4 4.8 5.6 7.9-6.8 1.5 1.8zm14.7-35.6l1.4 2.3q-1.7 0.2-3.1 0.6-1.4 0.5-2.5 1.2-1.8 1.2-2.4 2.6-0.6 1.4 0.3 2.7 0.7 1.2 1.8 1.3 1.1 0.2 3.2-0.7l1.6-0.6q2.9-1.2 4.9-0.7 2.1 0.4 3.4 2.5 1.6 2.5 0.8 4.9-0.9 2.3-4.1 4.4-1.2 0.8-2.8 1.4-1.5 0.6-3.3 1l-1.6-2.4q2-0.1 3.6-0.6 1.6-0.4 2.9-1.3 2-1.3 2.6-2.7 0.5-1.5-0.4-3-0.8-1.2-2-1.4-1.3-0.3-3.3 0.5l-1.6 0.7q-2.9 1.1-4.8 0.8-1.8-0.4-3.1-2.4-1.5-2.2-0.7-4.6 0.8-2.3 3.6-4.1 1.2-0.8 2.6-1.4 1.4-0.6 3-1zm-0.7 0.4l1.5 2.3q-1.7 0.2-3.1 0.6-1.4 0.5-2.5 1.2-1.9 1.2-2.4 2.6-0.6 1.4 0.3 2.7 0.7 1.2 1.8 1.3 1 0.2 3.2-0.7l1.6-0.6q2.9-1.2 4.9-0.7 2.1 0.4 3.4 2.5 1.6 2.5 0.8 4.9-0.9 2.3-4.1 4.4-1.2 0.8-2.8 1.4-1.5 0.6-3.3 1l-1.6-2.4q1.9-0.1 3.6-0.6 1.6-0.4 2.9-1.3 2-1.3 2.5-2.7 0.6-1.5-0.3-3-0.8-1.2-2.1-1.4-1.2-0.3-3.2 0.5l-1.6 0.7q-2.9 1.1-4.8 0.8-1.9-0.4-3.1-2.4-1.5-2.2-0.7-4.6 0.7-2.3 3.6-4.1 1.2-0.8 2.6-1.4 1.3-0.6 2.9-1zm13.8 6.1l-5.2-11.7 2.5-1.1 5.1 11.3q1.3 3 3 3.8 1.7 0.9 4.1-0.2 2.4-1.1 2.9-2.9 0.5-1.8-0.8-4.8l-5.1-11.3 2.5-1.2 5.2 11.7q1.7 3.6 0.7 6.3-1 2.7-4.5 4.2-3.5 1.6-6.2 0.6-2.6-1.1-4.2-4.7zm-0.7 0.3l-5.2-11.7 2.5-1.1 5.1 11.3q1.3 3 3 3.8 1.7 0.9 4.1-0.2 2.4-1.1 2.9-2.9 0.5-1.8-0.8-4.8l-5.1-11.3 2.6-1.2 5.2 11.7q1.6 3.6 0.6 6.3-0.9 2.7-4.5 4.2-3.5 1.6-6.1 0.6-2.7-1.1-4.3-4.7zm24-1.6l-5.9-19.5 2.7-0.8 5.2 17.3 9.5-2.9 0.7 2.3zm-0.7 0.2l-5.9-19.6 2.6-0.8 5.2 17.4 9.6-2.9 0.6 2.2zm6.8-20.8l-0.4-2.3 17-3.2 0.4 2.3-7.1 1.3 3.3 17.8-2.7 0.5-3.3-17.7zm-0.8 0.1l-0.4-2.3 17-3.2 0.4 2.3-7.1 1.4 3.3 17.7-2.7 0.5-3.4-17.7zm32.8 6.4l-4.3-9.9-3.2 10.3zm-12.8 8.2l6.8-20.8 3.1-0.2 8.8 20-2.8 0.2-2.2-5.1-9.2 0.4-1.5 5.3zm11.9-8.1l-4.2-10-3.3 10.4zm-12.7 8.2l6.8-20.8 3.1-0.2 8.8 20-2.9 0.2-2.1-5.2-9.2 0.5-1.6 5.3zm31.6-18.1l-3.3-0.4-1.7 15.8 3.3 0.4q4.2 0.4 6.4-1.3 2.1-1.7 2.6-5.8 0.4-4.1-1.4-6.2-1.7-2.1-5.9-2.5zm-8 17.4l2.2-20.3 5.6 0.6q5.9 0.6 8.4 3.4 2.5 2.7 1.9 7.9-0.5 5.3-3.6 7.4-3 2.2-8.9 1.6zm7.3-17.5l-3.3-0.4-1.7 15.8 3.3 0.4q4.2 0.4 6.4-1.3 2.1-1.7 2.6-5.8 0.4-4-1.4-6.1-1.7-2.1-5.9-2.6zm-8 17.4l2.2-20.3 5.6 0.6q5.9 0.6 8.4 3.4 2.5 2.7 2 8-0.6 5.2-3.6 7.4-3.1 2.1-9 1.5zm36.4-12.5q-2.9-0.8-5.3 0.9-2.3 1.6-3.3 5.4-1.1 3.7 0 6.3 1.1 2.6 4 3.5 2.9 0.8 5.2-0.9 2.3-1.6 3.3-5.4 1.1-3.7 0-6.3-1-2.7-3.9-3.5zm0.6-2.1q4.1 1.1 5.8 4.6 1.7 3.5 0.3 8.1-1.3 4.7-4.6 6.8-3.2 2-7.3 0.8-4.2-1.2-5.9-4.6-1.7-3.5-0.3-8.1 1.3-4.7 4.6-6.8 3.2-2 7.4-0.8zm-1.4 1.9q-2.8-0.8-5.2 0.9-2.3 1.6-3.3 5.3-1.1 3.8 0 6.4 1.1 2.6 4 3.5 2.9 0.8 5.1-0.9 2.4-1.7 3.4-5.4 1.1-3.7 0-6.3-1.1-2.7-4-3.5zm0.7-2.1q4.1 1.1 5.8 4.6 1.7 3.5 0.3 8.1-1.3 4.7-4.6 6.8-3.2 2-7.4 0.8-4.1-1.2-5.8-4.6-1.7-3.5-0.3-8.2 1.3-4.6 4.5-6.7 3.3-2 7.5-0.8zm28.5 12.2l-1.1 2.5q-1.1-1.4-2.2-2.3-1.1-0.9-2.3-1.5-2.1-0.9-3.5-0.7-1.5 0.3-2.2 1.8-0.6 1.2-0.1 2.2 0.4 0.9 2.3 2.3l1.4 1q2.5 1.8 3.2 3.8 0.7 2-0.3 4.2-1.3 2.7-3.7 3.3-2.5 0.5-6-1.1-1.3-0.6-2.6-1.6-1.4-1-2.7-2.3l1.2-2.6q1.2 1.6 2.4 2.7 1.3 1.1 2.7 1.7 2.1 1 3.7 0.7 1.5-0.2 2.3-1.8 0.6-1.4 0.1-2.5-0.4-1.2-2.2-2.5l-1.4-1q-2.5-1.8-3.2-3.6-0.7-1.8 0.3-3.9 1.1-2.5 3.5-3.1 2.4-0.6 5.5 0.9 1.3 0.6 2.5 1.4 1.2 0.9 2.4 2zm-0.6-0.3l-1.2 2.4q-1.1-1.3-2.2-2.2-1.1-0.9-2.3-1.5-2-1-3.5-0.7-1.5 0.3-2.2 1.8-0.5 1.2-0.1 2.2 0.5 0.9 2.3 2.3l1.4 1q2.5 1.8 3.2 3.8 0.8 2-0.3 4.2-1.3 2.7-3.7 3.2-2.5 0.6-5.9-1-1.3-0.6-2.7-1.6-1.3-1-2.6-2.3l1.2-2.6q1.1 1.5 2.3 2.7 1.3 1.1 2.7 1.7 2.2 1 3.7 0.7 1.6-0.3 2.3-1.8 0.6-1.4 0.2-2.5-0.5-1.2-2.2-2.5l-1.4-1q-2.6-1.9-3.3-3.6-0.7-1.8 0.3-3.9 1.2-2.5 3.6-3.1 2.3-0.6 5.4 0.8 1.3 0.6 2.5 1.5 1.3 0.9 2.5 2zm58.3 53.6l-2.4 1.7q0.3-1.9-0.2-3.6-0.4-1.6-1.4-3-2.1-2.9-4.9-3.1-2.8-0.2-6.1 2.1-3.3 2.4-3.9 5.2-0.6 2.8 1.5 5.6 1 1.4 2.4 2.3 1.5 0.9 3.4 1.3l-2.4 1.7q-1.6-0.6-3-1.6-1.3-1.1-2.4-2.5-2.7-3.8-2-7.6 0.7-3.8 4.7-6.7 3.9-2.9 7.8-2.4 3.9 0.4 6.6 4.2 1.1 1.5 1.7 3.1 0.5 1.6 0.6 3.3zm-0.5-0.6l-2.3 1.7q0.2-1.9-0.2-3.6-0.4-1.6-1.5-3-2-2.9-4.9-3.1-2.8-0.2-6 2.2-3.3 2.3-3.9 5.1-0.7 2.8 1.4 5.6 1.1 1.4 2.5 2.3 1.5 0.9 3.3 1.3l-2.3 1.7q-1.6-0.6-3-1.6-1.3-1-2.4-2.5-2.8-3.7-2-7.6 0.7-3.8 4.6-6.7 4-2.9 7.9-2.4 3.8 0.4 6.6 4.2 1.1 1.5 1.6 3.1 0.6 1.6 0.6 3.3zm-0.5 22l7.2-8-10.7 1.4zm-12.8-8.2l21.7-2.5 1.5 2.8-14.5 16.3-1.3-2.5 3.8-4.1-4.3-8.2-5.5 0.8zm12.4 7.5l7.3-8-10.8 1.3zm-12.7-8.1l21.7-2.5 1.4 2.8-14.5 16.3-1.3-2.6 3.8-4-4.3-8.2-5.5 0.8zm10.4 21.1l19.2-6.9 0.9 2.6-17 6.1 3.3 9.4-2.2 0.7zm-0.2-0.6l19.2-6.9 0.9 2.6-17 6.1 3.3 9.3-2.2 0.8zm5.4 16.6l19.8-5 0.7 2.7-19.8 5zm-0.2-0.8l19.8-4.9 0.7 2.7-19.9 4.9zm21.2 13.3l-0.4-3.3-15.8 2 0.5 3.3q0.5 4.2 2.6 5.9 2.2 1.7 6.3 1.2 4.1-0.5 5.7-2.7 1.6-2.2 1.1-6.4zm-18.8-3.7l20.3-2.6 0.7 5.6q0.8 5.9-1.3 8.9-2.1 3.1-7.3 3.8-5.3 0.7-8.1-1.8-2.8-2.4-3.6-8.3zm18.7 3l-0.4-3.3-15.7 2 0.4 3.3q0.5 4.2 2.7 5.9 2.1 1.7 6.2 1.2 4.1-0.5 5.7-2.7 1.7-2.2 1.1-6.4zm-18.7-3.7l20.2-2.6 0.7 5.6q0.8 5.9-1.3 8.9-2.1 3.1-7.3 3.8-5.2 0.7-8.1-1.8-2.8-2.4-3.5-8.3zm9.5 33.5l10.3-3.4-10-4.1zm-7.2-13.3l20.2 8.4-0.1 3.1-20.6 7.2v-2.8l5.3-1.8 0.3-9.2-5.2-2zm7.2 12.6l10.2-3.5-10-4zm-7.2-13.3l20.2 8.3-0.1 3.2-20.6 7.2 0.1-2.9 5.3-1.7 0.2-9.2-5.2-2zm15.6 32.9l0.7-3.2-15.6-3-0.7 3.3q-0.7 4.2 0.8 6.4 1.5 2.3 5.6 3.1 4 0.7 6.2-0.8 2.3-1.6 3-5.8zm-16.7-9.3l20.1 3.8-1 5.6q-1.1 5.8-4.1 8.1-2.9 2.2-8.1 1.2-5.2-0.9-7.1-4.1-1.9-3.2-0.8-9zm16.8 8.6l0.6-3.3-15.5-2.9-0.7 3.3q-0.8 4.1 0.8 6.4 1.5 2.3 5.5 3 4.1 0.8 6.3-0.8 2.2-1.6 3-5.7zm-16.7-9.4l20.1 3.8-1.1 5.6q-1.1 5.8-4 8.1-2.9 2.3-8.1 1.3-5.2-1-7.1-4.2-1.9-3.2-0.8-9zm-25.7 78.7q-0.8 0.4-2.1 0.4-1.3 0.1-3.2-0.4l-6.1-1.5 2-2.2 5.6 1.3q2.3 0.6 3.4 0.3 1.1-0.3 2.2-1.5l1.9-2.3-6.6-5.6 1.8-2.1 15.6 13.2-4 4.7q-2.3 2.7-4.5 3.1-2.2 0.3-4.5-1.6-1.5-1.2-1.9-2.7-0.4-1.5 0.4-3.1zm8.7 2.9l2.3-2.7-5.6-4.7-2.2 2.7q-1.3 1.5-1.2 2.9 0 1.3 1.4 2.5 1.3 1.2 2.7 1 1.3-0.2 2.6-1.7zm-8.3-3.5q-0.8 0.5-2.1 0.5-1.3 0-3.1-0.5l-6.1-1.4 1.9-2.3 5.7 1.4q2.2 0.5 3.4 0.2 1.1-0.3 2.1-1.5l2-2.3-6.6-5.6 1.8-2.1 15.6 13.2-4.1 4.8q-2.2 2.6-4.4 3-2.3 0.4-4.5-1.5-1.5-1.3-1.9-2.8-0.4-1.5 0.3-3.1zm8.8 2.9l2.3-2.7-5.6-4.6-2.2 2.6q-1.3 1.5-1.3 2.9 0.1 1.4 1.5 2.5 1.3 1.2 2.7 1 1.3-0.2 2.6-1.7zm-26.2 11.3l9.6 5.1-3.9-10.1zm4.8-14.3l7.7 20.4-2.4 2.1-19.3-10.2 2.2-1.9 4.8 2.7 6.9-6-2-5.2zm-4.4 13.8l9.6 5.2-3.9-10.1zm4.8-14.4l7.7 20.5-2.4 2.1-19.3-10.2 2.2-1.9 4.8 2.7 6.9-6.1-2-5.1zm-13.3 33.6l2.9-1.9-4.2-6.4-2.9 1.9q-1.6 1.1-1.9 2.5-0.3 1.4 0.7 2.9 1 1.6 2.4 1.8 1.4 0.3 3-0.8zm-4.7-18.6l11.2 17.1-5.2 3.4q-2.9 1.9-5.2 1.6-2.3-0.4-4-2.9-1.6-2.5-1-4.8 0.6-2.2 3.5-4.1l2.9-1.9-4.5-6.9zm5.3 18.2l2.9-1.9-4.2-6.4-2.9 1.9q-1.6 1.1-1.9 2.5-0.3 1.4 0.7 2.9 1 1.6 2.4 1.8 1.4 0.3 3-0.8zm-4.7-18.6l11.2 17.1-5.2 3.4q-2.9 1.9-5.2 1.6-2.3-0.4-4-2.9-1.6-2.5-1-4.7 0.6-2.3 3.5-4.2l2.9-1.9-4.5-6.8zm-15.9 9.7l9.4 18.1-2.4 1.3-9.4-18.1zm0.6-0.4l9.4 18.1-2.4 1.3-9.4-18.1zm-8.3 23.7l3.2-1.1-5.6-14.9-3.1 1.2q-4 1.5-5.1 3.9-1.2 2.5 0.2 6.4 1.5 3.8 4 4.9 2.5 1.1 6.4-0.4zm-0.6-19.1l7.1 19.1-5.3 2q-5.5 2.1-9 0.8-3.4-1.4-5.3-6.3-1.8-4.9-0.1-8.2 1.7-3.3 7.3-5.4zm1.3 18.9l3.1-1.2-5.5-14.9-3.2 1.2q-3.9 1.5-5.1 4-1.1 2.5 0.3 6.3 1.5 3.9 4 5 2.5 1.1 6.4-0.4zm-0.6-19.2l7.1 19.2-5.3 1.9q-5.5 2.1-9 0.8-3.5-1.3-5.3-6.3-1.9-4.9-0.1-8.2 1.7-3.3 7.2-5.4zm-22 7.6l4.1 20-12.7 2.6-0.4-2.3 9.9-2-1.2-5.9-9.5 1.9-0.5-2.3 9.5-1.9-1.5-7.3-10.2 2.1-0.4-2.2zm0.7-0.2l4.1 20-12.6 2.6-0.5-2.3 10-2-1.3-5.9-9.5 1.9-0.5-2.2 9.6-2-1.5-7.2-10.2 2.1-0.5-2.3zm-16.8 21.5l0.1 2.3-16 0.9-0.1-2.1 11.9-16.7-13.2 0.8-0.1-2.3 16.6-1 0.1 2.1-11.9 16.7zm0.7 0l0.2 2.3-16 0.9-0.2-2.1 12-16.7-13.2 0.8-0.2-2.3 16.7-1 0.1 2.1-11.9 16.7zm-89.4-15l1.1-2.4q1.1 1.3 2.2 2.2 1.1 1 2.3 1.5 2.1 1 3.5 0.7 1.5-0.2 2.2-1.7 0.6-1.2 0.2-2.2-0.5-1-2.4-2.3l-1.3-1q-2.6-1.9-3.2-3.9-0.7-1.9 0.3-4.2 1.3-2.7 3.8-3.2 2.4-0.5 5.9 1.1 1.3 0.6 2.6 1.6 1.4 1 2.7 2.4l-1.3 2.5q-1.1-1.5-2.3-2.7-1.3-1.1-2.7-1.7-2.1-1.1-3.7-0.8-1.5 0.3-2.3 1.9-0.6 1.3-0.1 2.5 0.4 1.2 2.1 2.4l1.4 1.1q2.5 1.8 3.2 3.6 0.7 1.8-0.3 3.9-1.1 2.5-3.5 3-2.4 0.6-5.5-0.8-1.3-0.6-2.5-1.5-1.2-0.9-2.4-2zm0.7 0.3l1.1-2.4q1.1 1.3 2.2 2.3 1.1 0.9 2.3 1.5 2 0.9 3.5 0.7 1.5-0.3 2.2-1.8 0.6-1.2 0.1-2.2-0.4-0.9-2.3-2.3l-1.3-1q-2.6-1.9-3.3-3.8-0.7-2 0.4-4.3 1.3-2.6 3.7-3.2 2.5-0.5 5.9 1.1 1.4 0.7 2.7 1.7 1.3 1 2.6 2.3l-1.2 2.6q-1.1-1.6-2.4-2.7-1.2-1.2-2.6-1.8-2.2-1-3.7-0.8-1.6 0.3-2.3 1.9-0.7 1.3-0.2 2.5 0.5 1.2 2.2 2.5l1.4 1q2.5 1.9 3.2 3.6 0.7 1.8-0.3 3.9-1.2 2.5-3.6 3.1-2.4 0.5-5.4-0.9-1.3-0.6-2.5-1.5-1.3-0.9-2.4-2zm1.9-21.4l-11.2 17-10.8-7.1 1.3-2 8.5 5.6 3.3-5-8.1-5.4 1.3-1.9 8.1 5.3 4.1-6.1-8.7-5.8 1.3-1.9zm0.6 0.4l-11.3 17-10.7-7.1 1.2-1.9 8.5 5.6 3.3-5.1-8.1-5.3 1.3-2 8.1 5.4 4.1-6.2-8.7-5.7 1.3-1.9zm-28.2-18.3l-3.7 4.1 3.3 3-1.5 1.7-5.4-4.9 5.9-6.5q2 0.3 3.8 1.1 1.8 0.9 3.4 2.4 3.6 3.2 3.7 7.1 0.1 3.9-3.3 7.6-3.3 3.7-7.2 3.9-3.9 0.3-7.4-3-1.5-1.3-2.5-2.9-1-1.6-1.5-3.3l2-2.2q0.3 2 1.1 3.7 0.8 1.6 2.2 2.9 2.8 2.5 5.6 2.2 2.8-0.2 5.6-3.3 2.8-3.1 2.8-5.9 0-2.8-2.8-5.3-1.1-1-2.1-1.6-1-0.6-2-0.8zm0.5 0.5l-3.7 4.1 3.4 3-1.6 1.7-5.3-4.9 5.9-6.5q1.9 0.3 3.7 1.1 1.8 0.9 3.5 2.4 3.5 3.2 3.6 7.1 0.1 3.9-3.2 7.6-3.4 3.7-7.3 3.9-3.8 0.3-7.4-3-1.5-1.3-2.5-2.9-1-1.6-1.4-3.3l1.9-2.2q0.3 2 1.1 3.7 0.9 1.6 2.3 2.9 2.7 2.5 5.5 2.2 2.8-0.2 5.6-3.3 2.8-3.1 2.8-5.9 0-2.8-2.7-5.3-1.1-1-2.1-1.6-1.1-0.6-2.1-0.8zm-10.4-3.9l-10 7.9-1.8-2.2 9.8-7.7q2.5-2 2.9-3.9 0.4-1.8-1.2-3.9-1.7-2.1-3.5-2.1-1.9 0-4.5 2l-9.7 7.7-1.7-2.2 10-7.9q3.1-2.5 5.9-2.2 2.8 0.3 5.2 3.3 2.4 3.1 2.1 5.9-0.4 2.8-3.5 5.3zm0.4 0.5l-10 7.9-1.7-2.1 9.7-7.7q2.6-2.1 3-3.9 0.4-1.8-1.3-3.9-1.6-2.1-3.5-2.1-1.8-0.1-4.4 2l-9.8 7.7-1.7-2.2 10-7.9q3.2-2.5 6-2.2 2.8 0.3 5.2 3.3 2.4 3 2 5.9-0.4 2.8-3.5 5.2zm-20.6-26.5q-0.2-1 0.3-2.2 0.4-1.2 1.5-2.8l3.5-5.2 1.4 2.6-3.2 4.9q-1.3 1.9-1.4 3-0.2 1.2 0.6 2.6l1.5 2.6 7.5-4.2 1.4 2.4-17.8 10-3.1-5.4q-1.7-3.1-1.2-5.3 0.4-2.2 3-3.7 1.6-0.9 3.2-0.7 1.5 0.1 2.8 1.4zm-5.8 7.2l1.7 3 6.3-3.6-1.7-3q-0.9-1.7-2.2-2.2-1.4-0.4-2.9 0.5-1.6 0.9-1.9 2.2-0.3 1.3 0.7 3.1zm6.2-6.6q-0.2-0.9 0.2-2.1 0.5-1.3 1.6-2.8l3.5-5.2 1.4 2.6-3.3 4.8q-1.3 1.9-1.4 3.1-0.1 1.1 0.7 2.5l1.5 2.7 7.5-4.3 1.3 2.5-17.8 10-3-5.5q-1.7-3-1.3-5.3 0.4-2.2 3-3.6 1.7-1 3.3-0.8 1.5 0.2 2.8 1.4zm-5.8 7.2l1.7 3 6.3-3.5-1.7-3q-1-1.8-2.3-2.2-1.3-0.5-2.9 0.4-1.5 0.9-1.8 2.2-0.3 1.4 0.7 3.1zm9-22.4l-18.8 7.9-1.1-2.5 18.8-8zm0.3 0.7l-18.8 8-1.1-2.6 18.8-7.9zm-22.9-9.9l0.9 3.2 15.3-4.4-0.9-3.2q-1.2-4-3.6-5.4-2.4-1.3-6.4-0.2-3.9 1.1-5.2 3.6-1.3 2.4-0.1 6.4zm19.1 0.8l-19.6 5.7-1.5-5.4q-1.7-5.7-0.1-9.1 1.6-3.3 6.6-4.8 5.1-1.5 8.2 0.5 3.2 2 4.9 7.7zm-19-0.1l1 3.2 15.2-4.4-0.9-3.2q-1.2-4.1-3.6-5.4-2.4-1.4-6.3-0.2-4 1.1-5.3 3.5-1.2 2.4-0.1 6.5zm19.2 0.8l-19.6 5.7-1.6-5.5q-1.7-5.7-0.1-9 1.6-3.4 6.6-4.8 5.1-1.5 8.3 0.5 3.1 2 4.8 7.6zm-14.6-31.7l-9.6 5 10.5 2.5zm9.1 12.1l-21.2-5.2-0.4-3.2 19.3-10.2 0.4 2.8-5 2.5 1.1 9.2 5.5 1.2zm-9-11.4l-9.7 5 10.6 2.5zm9.1 12l-21.2-5.2-0.4-3.1 19.3-10.2 0.3 2.8-4.9 2.5 1.1 9.2 5.4 1.2zm-20.4-30.2l-0.1 3.4 15.9 0.5 0.1-3.3q0.1-4.3-1.7-6.3-1.9-2-6-2.1-4.1-0.2-6 1.7-2 1.9-2.2 6.1zm18 6.7l-20.4-0.6 0.2-5.7q0.2-6 2.7-8.6 2.6-2.7 7.8-2.6 5.3 0.2 7.7 3.1 2.4 2.9 2.2 8.8zm-18-6l-0.1 3.3 15.9 0.6 0.1-3.4q0.1-4.2-1.7-6.2-1.9-2-6-2.2-4.1-0.1-6.1 1.8-2 1.9-2.1 6.1zm17.9 6.7l-20.4-0.7 0.2-5.7q0.2-5.9 2.8-8.6 2.5-2.7 7.8-2.5 5.3 0.2 7.6 3.1 2.4 2.8 2.2 8.7z"/>
	<path id="RESULTADOS ★ CALIDAD ★ RAPIDEZ ★" class="s3" aria-label="RESULTADOS ★ CALIDAD ★ RAPIDEZ ★ SEGURIDAD  ★"  d="m285.6 86.1l-2.2-8.5 6.8 5.6 7.4-4.8-3.1 8.2 6.7 5.6-8.7-0.5-3.2 8.2-2.2-8.5-8.8-0.6zm-0.6-0.5l-2.2-8.4 6.7 5.5 7.4-4.7-3.1 8.2 6.8 5.5-8.8-0.5-3.2 8.2-2.2-8.5-8.8-0.5zm43.8 171.6l7.8-4.2-3.8 7.9 6.3 6.1-8.7-1.1-3.8 7.8-1.6-8.6-8.7-1.2 7.8-4.1-1.6-8.7zm0.4-0.7l7.7-4.1-3.8 7.9 6.3 6-8.7-1.1-3.8 7.9-1.6-8.7-8.6-1.2 7.7-4.1-1.5-8.7zm-153.5 82.9l5.9 6.4-8.6-1.7-4.3 7.7-1.1-8.7-8.6-1.7 8-3.7-1.1-8.7 6 6.4 8-3.7zm0.8 0.2l5.9 6.4-8.6-1.7-4.2 7.7-1.1-8.7-8.6-1.7 7.9-3.7-1-8.7 6 6.4 7.9-3.7zm-111.3-188.6l-7.4 4.7 3.2-8.1-6.8-5.6 8.7 0.5 3.2-8.2 2.3 8.5 8.7 0.5-7.4 4.7 2.2 8.6zm-0.3 0.7l-7.3 4.7 3.1-8.2-6.7-5.5 8.7 0.4 3.2-8.1 2.2 8.5 8.8 0.5-7.4 4.7 2.2 8.5z"/>
</svg>